<svg width="215" height="39" viewBox="0 0 215 39" fill="none" xmlns="http://www.w3.org/2000/svg">
<path d="M25.9179 3.60821C30.6704 -1.14358 38.2239 -1.23541 42.991 3.53102L45.8959 6.43549C46.049 6.58861 46.049 6.83688 45.8959 6.98999L29.3001 23.5833C29.147 23.7364 28.8988 23.7364 28.7457 23.5833L25.8407 20.6788C21.0736 15.9124 21.1654 8.36001 25.9179 3.60821Z" fill="#A0FFCC"/>
<path d="M17.0582 18.0937C16.991 18.0618 16.9808 17.9696 17.0394 17.9239C19.3626 16.1113 20.8345 13.2648 20.8345 10.0512C20.8345 4.54719 16.5168 0.120069 10.9997 0.120069H0.392381C0.175853 0.120069 0.000322167 0.2956 0.000322155 0.512128L0.00032121 17.0756H9.49552e-07L0 37.7569C-9.94158e-09 37.9734 0.175531 38.149 0.392059 38.149H12.4936C18.3956 38.149 23.0145 33.4519 23.0145 27.6123C23.0145 23.4006 20.6119 19.7833 17.0582 18.0937Z" fill="#A0FFCC"/>
<path d="M39.6265 15.5289C39.7796 15.3758 40.0278 15.3758 40.1809 15.5289L41.2342 16.5821C41.3874 16.7352 41.3874 16.9835 41.2342 17.1366L26.6268 31.7418C26.4731 31.8955 26.2238 31.8948 26.071 31.7404L25.0231 30.6817C24.8713 30.5284 24.8719 30.2812 25.0245 30.1287L39.6265 15.5289Z" fill="#A0FFCC"/>
<path d="M29.3477 34.4907C29.194 34.6444 28.9447 34.6437 28.7918 34.4893L27.7377 33.4243C27.5859 33.2709 27.5865 33.0238 27.7391 32.8712L35.048 25.5502L42.3552 18.2573C42.5083 18.1042 42.7565 18.1042 42.9096 18.2573L43.9693 19.3168C44.1224 19.4699 44.1224 19.7181 43.9693 19.8713L29.3477 34.4907Z" fill="#A0FFCC"/>
<path d="M30.46 35.6201C30.3074 35.7727 30.3068 36.0198 30.4585 36.1732L31.5127 37.2382C31.6656 37.3926 31.9149 37.3933 32.0685 37.2396L46.7044 22.6059C46.8575 22.4528 46.8575 22.2046 46.7044 22.0514L45.6447 20.992C45.4916 20.8389 45.2434 20.8389 45.0903 20.992L30.46 35.6201Z" fill="#A0FFCC"/>
<path d="M36.7369 38.0413C36.6634 38.1148 36.5637 38.1561 36.4597 38.1561H33.8671C33.6924 38.1561 33.605 37.9449 33.7285 37.8215L47.2687 24.2832C47.3924 24.1595 47.6039 24.2475 47.6034 24.4224L47.5954 27.0232C47.5951 27.1267 47.5538 27.226 47.4805 27.2992L36.7369 38.0413Z" fill="#A0FFCC"/>
<path d="M47.5864 29.9088C47.587 29.7339 47.3755 29.6458 47.2517 29.7695L39.1986 37.8215C39.0751 37.9449 39.1626 38.1561 39.3372 38.1561L43.6841 38.1561C43.7887 38.1561 43.889 38.1143 43.9626 38.04L47.4579 34.5118C47.5303 34.4387 47.5711 34.3401 47.5714 34.2372L47.5864 29.9088Z" fill="#A0FFCC"/>
<path d="M138.765 14.3365C139.408 13.5284 140.978 14.1065 142.225 15.7632L146.057 14.3365C145.22 11.483 143.291 9.75049 139.839 9.75049C136.185 9.75049 133.977 12.3492 133.977 15.1772C133.977 18.26 135.779 19.381 137.251 20.2728L140.372 22.1836C140.372 22.1836 142.972 23.7687 140.978 25.2664C139.839 26.1213 138.317 24.1963 137.251 22.6931L133.368 24.1963C133.85 27.2027 135.83 29.674 139.865 29.674C143.57 29.674 146.184 27.432 146.184 24.018C146.184 21.2664 144.636 19.7123 143.088 18.7696L139.51 16.5785C138.255 15.8319 138.123 15.1445 138.765 14.3365Z" fill="white"/>
<path fill-rule="evenodd" clip-rule="evenodd" d="M69.2548 19.381C71.3866 20.2728 72.2241 22.2345 72.2241 24.0689C72.2241 26.9479 69.7877 29.2664 66.2347 29.2664H58.5449V10.1581H65.8794C69.4324 10.1581 71.818 12.1709 71.818 15.3046C71.818 16.8842 71.082 18.5912 69.2548 19.381ZM65.3718 14.0053H63.0116V17.8524H65.3464C66.6407 17.8524 67.326 16.9861 67.326 15.9161C67.326 14.8205 66.6407 14.0053 65.3718 14.0053ZM63.0116 25.3683H65.7271C66.996 25.3683 67.7067 24.5021 67.7067 23.432C67.7067 22.3874 66.9961 21.4957 65.7017 21.4957H63.0116V25.3683Z" fill="white"/>
<path d="M85.3879 15.9925V29.2664H73.6121V15.9925H78.028V25.4192H80.972V15.9925H85.3879Z" fill="white"/>
<path d="M87.4962 15.9925V29.2664H91.9121V19.8906H94.1454V15.9925H87.4962Z" fill="white"/>
<path d="M100.013 15.9925V29.2664H95.5972V15.9925H100.013Z" fill="white"/>
<path fill-rule="evenodd" clip-rule="evenodd" d="M113.922 27.1772L111.409 24.5021C110.673 25.4447 109.861 25.8014 108.643 25.8014C107.145 25.8014 106.257 25.139 105.953 23.8651H114.81C114.886 23.4829 114.911 23.0243 114.911 22.5912C114.911 18.4638 112.348 15.5849 108.465 15.5849C104.278 15.5849 101.384 18.4638 101.384 22.6422C101.384 26.7441 104.252 29.674 108.516 29.674C110.775 29.674 112.551 28.9606 113.922 27.1772ZM108.364 19.3046C109.607 19.3046 110.419 20.0944 110.597 21.2919H105.927C106.232 20.018 107.044 19.3046 108.364 19.3046Z" fill="white"/>
<path fill-rule="evenodd" clip-rule="evenodd" d="M121.925 29.674C118.296 29.674 115.682 26.8205 115.682 22.6422C115.682 18.4384 118.423 15.5849 122.128 15.5849C123.6 15.5849 124.894 16.0689 125.529 16.8588H125.63C125.63 16.8312 125.629 16.798 125.626 16.7496C125.619 16.6192 125.605 16.3784 125.605 15.8397V10.9276H129.97V29.2664H125.91V28.8587C125.91 28.4766 125.935 28.1708 125.96 27.9925H125.859C125.021 29.088 123.6 29.674 121.925 29.674ZM120.123 22.5658C120.123 24.4766 121.291 25.725 122.915 25.725C124.565 25.725 125.757 24.4766 125.757 22.5658C125.757 20.6804 124.565 19.4575 122.915 19.4575C121.291 19.4575 120.123 20.6804 120.123 22.5658Z" fill="white"/>
<path d="M152.105 15.9925V29.2664H147.689V15.9925H152.105Z" fill="white"/>
<path fill-rule="evenodd" clip-rule="evenodd" d="M153.502 22.3874C153.502 26.4129 156.141 29.139 159.771 29.139C161.293 29.139 162.613 28.604 163.197 27.8141H163.298C163.273 28.0689 163.273 28.2218 163.273 28.7568V30.9491H156.712V34.7962H164.985L167.613 32.1684V15.9925H163.577V16.5021C163.577 16.8588 163.603 17.0881 163.628 17.2664H163.527C162.715 16.1963 161.344 15.5849 159.644 15.5849C156.091 15.5849 153.502 18.311 153.502 22.3874ZM160.659 19.432C162.283 19.432 163.425 20.5785 163.425 22.3365C163.425 24.0944 162.283 25.2664 160.659 25.2664C159.06 25.2664 157.918 24.1199 157.918 22.3365C157.918 20.5785 159.06 19.432 160.659 19.432Z" fill="white"/>
<path d="M169.708 29.2664V15.9925H181.585V29.2664H177.169V19.7887H174.124V29.2664H169.708Z" fill="white"/>
<path fill-rule="evenodd" clip-rule="evenodd" d="M182.98 22.6422C182.98 26.8205 185.594 29.674 189.224 29.674C190.949 29.674 192.345 29.0626 193.157 27.9925H193.259C193.233 28.1708 193.208 28.4256 193.208 28.7823V29.2664H197.243V15.9925H193.208V16.4256C193.208 16.8333 193.233 17.0116 193.259 17.139H193.157C192.421 16.1709 191.127 15.5849 189.427 15.5849C185.747 15.5849 182.98 18.4384 182.98 22.6422ZM190.213 25.7759C188.589 25.7759 187.422 24.5021 187.422 22.5658C187.422 20.6804 188.589 19.432 190.213 19.432C191.863 19.432 193.056 20.6804 193.056 22.5658C193.056 24.5021 191.863 25.7759 190.213 25.7759Z" fill="white"/>
<path d="M203.72 29.2664H199.304L199.518 10.9276H203.933L203.72 29.2664Z" fill="white"/>
<path d="M209.341 19.483C209.341 19.0753 209.645 18.7951 210.102 18.7951C210.965 18.7951 211.777 19.5084 212.183 20.1963L214.975 18.4129C214.163 16.9097 212.741 15.5849 210 15.5849C207.361 15.5849 205.407 17.4957 205.407 19.6358C205.407 22.0817 206.879 22.897 208.351 23.7122L209.899 24.604C210.584 24.9606 210.787 25.2154 210.787 25.5466C210.787 25.9798 210.457 26.26 209.95 26.26C208.782 26.26 208.021 25.2409 207.843 24.6804L204.874 26.3874C205.407 28.0434 206.879 29.674 209.95 29.674C213.147 29.674 215 27.9161 215 25.4192C215 23.1517 213.63 22.2345 212.259 21.4957L210.609 20.604C209.645 20.0944 209.341 19.8906 209.341 19.483Z" fill="white"/>
<path d="M95.687 11.4712H99.961V14.392H95.687V11.4712Z" fill="white"/>
<path d="M151.851 11.4712H147.577V14.392H151.851V11.4712Z" fill="white"/>
</svg>
