<svg width="70" height="56" viewBox="0 0 70 56" fill="none" xmlns="http://www.w3.org/2000/svg">
<path d="M37.6491 5.2414C44.5527 -1.6612 55.5251 -1.7946 62.45 5.12927L66.6697 9.34839C66.8922 9.57081 66.8922 9.93145 66.6697 10.1539L42.5622 34.2579C42.3398 34.4802 41.9792 34.4802 41.7568 34.2579L37.537 30.0386C30.6121 23.1148 30.7455 12.144 37.6491 5.2414Z" fill="#1C1E1F"/>
<path d="M24.7792 26.2834C24.6817 26.2371 24.6669 26.1031 24.752 26.0367C28.1267 23.4037 30.2648 19.2688 30.2648 14.6007C30.2648 6.60539 23.9928 0.174416 15.9785 0.174416H0.569984C0.255449 0.174416 0.00046799 0.429397 0.000467972 0.743932L0.000466599 24.8045H1.37935e-06L0 54.8468C-1.44414e-08 55.1613 0.254981 55.4163 0.569516 55.4163H18.1485C26.7219 55.4163 33.4316 48.5932 33.4316 40.1104C33.4316 33.9924 29.9415 28.7377 24.7792 26.2834Z" fill="#1C1E1F"/>
<path d="M57.5656 22.5581C57.788 22.3358 58.1485 22.3358 58.3709 22.5581L59.901 24.088C60.1235 24.3105 60.1235 24.6711 59.901 24.8935L38.6819 46.1096C38.4586 46.3328 38.0965 46.3318 37.8744 46.1075L36.3523 44.5696C36.1318 44.3469 36.1327 43.9879 36.3543 43.7663L57.5656 22.5581Z" fill="#1C1E1F"/>
<path d="M42.6343 50.1027C42.4111 50.3259 42.0489 50.3249 41.8268 50.1006L40.2955 48.5535C40.0751 48.3308 40.076 47.9718 40.2976 47.7502L50.9147 37.1154L61.5294 26.5215C61.7518 26.2991 62.1124 26.2991 62.3348 26.5215L63.8741 28.0605C64.0965 28.2829 64.0965 28.6436 63.8741 28.866L42.6343 50.1027Z" fill="#1C1E1F"/>
<path d="M44.2501 51.7433C44.0284 51.9649 44.0275 52.3239 44.248 52.5466L45.7792 54.0937C46.0013 54.318 46.3635 54.319 46.5867 54.0958L67.8471 32.8385C68.0696 32.6161 68.0696 32.2554 67.8471 32.033L66.3078 30.494C66.0854 30.2716 65.7249 30.2716 65.5025 30.494L44.2501 51.7433Z" fill="#1C1E1F"/>
<path d="M53.3681 55.2604C53.2613 55.3671 53.1164 55.4271 52.9654 55.4271H49.1993C48.9456 55.4271 48.8186 55.1204 48.998 54.941L68.667 35.2749C68.8466 35.0952 69.1538 35.223 69.153 35.4771L69.1415 39.2551C69.141 39.4056 69.081 39.5497 68.9746 39.6561L53.3681 55.2604Z" fill="#1C1E1F"/>
<path d="M69.1283 43.4469C69.1292 43.1927 68.822 43.0648 68.6422 43.2446L56.9441 54.941C56.7647 55.1204 56.8917 55.4271 57.1454 55.4271L63.4598 55.4271C63.6118 55.4271 63.7575 55.3664 63.8644 55.2584L68.9417 50.1333C69.0469 50.0271 69.1061 49.8838 69.1066 49.7344L69.1283 43.4469Z" fill="#1C1E1F"/>
</svg>
