<svg width="108" height="74" viewBox="0 0 108 74" fill="none" xmlns="http://www.w3.org/2000/svg">
<path d="M55.9465 3.61219C60.7042 -1.14484 68.266 -1.23678 73.0384 3.53492L75.9465 6.44259C76.0998 6.59587 76.0998 6.84442 75.9465 6.9977L59.3324 23.6093C59.1791 23.7626 58.9307 23.7626 58.7774 23.6093L55.8692 20.7016C51.0968 15.9299 51.1888 8.36922 55.9465 3.61219Z" fill="white"/>
<path d="M47.077 18.1137C47.0098 18.0817 46.9996 17.9894 47.0582 17.9436C49.3839 16.1291 50.8575 13.2794 50.8575 10.0623C50.8575 4.55221 46.535 0.120201 41.0118 0.120201H30.3928C30.176 0.120201 30.0003 0.295926 30.0003 0.512693L30.0003 17.0944H30L30 37.7985C30 38.0153 30.1757 38.191 30.3925 38.191H42.5074C48.4158 38.191 53.0399 33.4888 53.0399 27.6427C53.0399 23.4264 50.6346 19.8051 47.077 18.1137Z" fill="white"/>
<path d="M69.6725 15.5462C69.8258 15.393 70.0742 15.393 70.2275 15.5462L71.282 16.6006C71.4353 16.7539 71.4353 17.0024 71.282 17.1557L56.6585 31.7771C56.5046 31.9309 56.2551 31.9302 56.102 31.7756L55.053 30.7158C54.901 30.5623 54.9017 30.3148 55.0544 30.1621L69.6725 15.5462Z" fill="white"/>
<path d="M59.3823 34.529C59.2285 34.6828 58.9789 34.6821 58.8259 34.5275L57.7706 33.4614C57.6186 33.3078 57.6193 33.0604 57.772 32.9077L65.089 25.5786L72.4043 18.2776C72.5575 18.1244 72.806 18.1244 72.9593 18.2776L74.0201 19.3383C74.1734 19.4916 74.1734 19.7401 74.0201 19.8934L59.3823 34.529Z" fill="white"/>
<path d="M60.4959 35.6596C60.3431 35.8123 60.3425 36.0598 60.4945 36.2133L61.5498 37.2794C61.7028 37.4341 61.9524 37.4347 62.1062 37.2809L76.7582 22.6311C76.9115 22.4778 76.9115 22.2293 76.7582 22.076L75.6974 21.0153C75.5441 20.8621 75.2956 20.8621 75.1423 21.0153L60.4959 35.6596Z" fill="white"/>
<path d="M66.7797 38.0835C66.7061 38.1571 66.6063 38.1984 66.5022 38.1984H63.9067C63.7319 38.1984 63.6443 37.987 63.768 37.8634L77.3232 24.3102C77.447 24.1863 77.6587 24.2744 77.6582 24.4495L77.6502 27.0532C77.6499 27.1569 77.6085 27.2562 77.5352 27.3295L66.7797 38.0835Z" fill="white"/>
<path d="M77.6412 29.942C77.6418 29.7669 77.43 29.6787 77.3061 29.8026L69.2442 37.8634C69.1205 37.987 69.2081 38.1984 69.3829 38.1984L73.7346 38.1984C73.8393 38.1984 73.9397 38.1565 74.0134 38.0821L77.5125 34.55C77.585 34.4769 77.6258 34.3782 77.6262 34.2752L77.6412 29.942Z" fill="white"/>
<path d="M55.0758 59.6454C55.5168 59.0906 56.595 59.4875 57.4513 60.6249L60.0823 59.6454C59.5073 57.6863 58.1831 56.4968 55.8134 56.4968C53.3044 56.4968 51.7885 58.281 51.7885 60.2226C51.7885 62.3391 53.0256 63.1088 54.0362 63.721L56.1793 65.0329C56.1793 65.0329 57.9642 66.1212 56.595 67.1494C55.8134 67.7363 54.768 66.4147 54.0362 65.3827L51.3703 66.4147C51.7014 68.4788 53.0604 70.1755 55.8308 70.1755C58.3747 70.1755 60.1694 68.6362 60.1694 66.2923C60.1694 64.4032 59.1066 63.3362 58.0437 62.689L55.5869 61.1847C54.7253 60.6721 54.6347 60.2001 55.0758 59.6454Z" fill="white"/>
<path fill-rule="evenodd" clip-rule="evenodd" d="M7.35292 63.1088C8.81654 63.721 9.39153 65.0679 9.39153 66.3273C9.39153 68.3038 7.71883 69.8956 5.27947 69.8956H0V56.7767H5.03553C7.47489 56.7767 9.11275 58.1586 9.11275 60.3101C9.11275 61.3946 8.60745 62.5665 7.35292 63.1088ZM4.68705 59.418H3.06662V62.0592H4.66963C5.55825 62.0592 6.0287 61.4645 6.0287 60.7299C6.0287 59.9777 5.55825 59.418 4.68705 59.418ZM3.06662 67.2194H4.93099C5.80219 67.2194 6.29006 66.6246 6.29006 65.89C6.29006 65.1728 5.80219 64.5606 4.91357 64.5606H3.06662V67.2194Z" fill="white"/>
<path d="M18.4292 60.7823V69.8956H10.3445V60.7823H13.3763V67.2543H15.3975V60.7823H18.4292Z" fill="white"/>
<path d="M19.8767 60.7823V69.8956H22.9085V63.4586H24.4418V60.7823H19.8767Z" fill="white"/>
<path d="M28.4703 60.7823V69.8956H25.4385V60.7823H28.4703Z" fill="white"/>
<path fill-rule="evenodd" clip-rule="evenodd" d="M38.0193 68.4613L36.2943 66.6246C35.789 67.2718 35.2314 67.5167 34.3951 67.5167C33.3671 67.5167 32.7572 67.0619 32.5481 66.1873H38.6291C38.6814 65.925 38.6988 65.6101 38.6988 65.3127C38.6988 62.479 36.939 60.5025 34.2731 60.5025C31.3981 60.5025 29.4118 62.4791 29.4118 65.3477C29.4118 68.1639 31.3807 70.1755 34.308 70.1755C35.8587 70.1755 37.0784 69.6857 38.0193 68.4613ZM34.2034 63.0563C35.0572 63.0563 35.6147 63.5985 35.7367 64.4207H32.5307C32.7398 63.5461 33.2974 63.0563 34.2034 63.0563Z" fill="white"/>
<path fill-rule="evenodd" clip-rule="evenodd" d="M43.5142 70.1755C41.0226 70.1755 39.2279 68.2164 39.2279 65.3477C39.2279 62.4616 41.1097 60.5025 43.6536 60.5025C44.6642 60.5025 45.5528 60.8348 45.9884 61.3771H46.0581C46.0581 61.3581 46.0568 61.3353 46.055 61.3021C46.0499 61.2126 46.0407 61.0473 46.0407 60.6774V57.305H49.0376V69.8956H46.2498V69.6157C46.2498 69.3534 46.2672 69.1435 46.2846 69.021H46.2149C45.6399 69.7732 44.6642 70.1755 43.5142 70.1755ZM42.2771 65.2952C42.2771 66.6071 43.0786 67.4642 44.1937 67.4642C45.3263 67.4642 46.1452 66.6071 46.1452 65.2952C46.1452 64.0008 45.3263 63.1612 44.1937 63.1612C43.0786 63.1612 42.2771 64.0008 42.2771 65.2952Z" fill="white"/>
<path d="M64.2346 60.7823V69.8956H61.2028V60.7823H64.2346Z" fill="white"/>
<path fill-rule="evenodd" clip-rule="evenodd" d="M65.1936 65.1728C65.1936 67.9365 67.0056 69.8082 69.4973 69.8082C70.5427 69.8082 71.4488 69.4408 71.8495 68.8986H71.9192C71.9018 69.0735 71.9018 69.1784 71.9018 69.5458V71.0509H67.3975V73.6922H73.0771L74.8813 71.888V60.7823H72.1109V61.1322C72.1109 61.3771 72.1283 61.5345 72.1457 61.6569H72.076C71.5185 60.9223 70.5776 60.5025 69.4102 60.5025C66.9708 60.5025 65.1936 62.3741 65.1936 65.1728ZM70.1071 63.1437C71.2223 63.1437 72.0063 63.9309 72.0063 65.1378C72.0063 66.3448 71.2223 67.1494 70.1071 67.1494C69.0094 67.1494 68.2253 66.3622 68.2253 65.1378C68.2253 63.9309 69.0094 63.1437 70.1071 63.1437Z" fill="white"/>
<path d="M76.3197 69.8956V60.7823H84.4741V69.8956H81.4423V63.3886H79.3515V69.8956H76.3197Z" fill="white"/>
<path fill-rule="evenodd" clip-rule="evenodd" d="M85.4321 65.3477C85.4321 68.2164 87.2268 70.1755 89.7184 70.1755C90.9033 70.1755 91.8616 69.7557 92.4191 69.021H92.4888C92.4714 69.1435 92.454 69.3184 92.454 69.5633V69.8956H95.2244V60.7823H92.454V61.0797C92.454 61.3596 92.4714 61.482 92.4888 61.5695H92.4191C91.9138 60.9048 91.0252 60.5025 89.8578 60.5025C87.3313 60.5025 85.4321 62.4616 85.4321 65.3477ZM90.3979 67.4992C89.2828 67.4992 88.4813 66.6246 88.4813 65.2952C88.4813 64.0008 89.2828 63.1437 90.3979 63.1437C91.5305 63.1437 92.3494 64.0008 92.3494 65.2952C92.3494 66.6246 91.5305 67.4992 90.3979 67.4992Z" fill="white"/>
<path d="M99.6709 69.8956H96.6391L96.7858 57.305H99.8176L99.6709 69.8956Z" fill="white"/>
<path d="M103.53 63.1787C103.53 62.8989 103.739 62.7064 104.053 62.7064C104.645 62.7064 105.203 63.1962 105.481 63.6685L107.398 62.4441C106.84 61.412 105.865 60.5025 103.983 60.5025C102.171 60.5025 100.829 61.8144 100.829 63.2837C100.829 64.9629 101.84 65.5226 102.85 66.0824L103.913 66.6946C104.384 66.9395 104.523 67.1144 104.523 67.3418C104.523 67.6392 104.297 67.8316 103.948 67.8316C103.147 67.8316 102.624 67.1319 102.502 66.7471L100.463 67.919C100.829 69.056 101.84 70.1755 103.948 70.1755C106.143 70.1755 107.415 68.9685 107.415 67.2543C107.415 65.6976 106.475 65.0679 105.534 64.5606L104.401 63.9484C103.739 63.5985 103.53 63.4586 103.53 63.1787Z" fill="white"/>
<path d="M25.5002 57.6782H28.4345V59.6835H25.5002V57.6782Z" fill="white"/>
<path d="M64.0602 57.6782H61.1259V59.6835H64.0602V57.6782Z" fill="white"/>
</svg>
